<?xml version="1.0" encoding="UTF-8"?>
<svg width="15px" height="12px" viewBox="0 0 15 12" version="1.1" xmlns="http://www.w3.org/2000/svg" xmlns:xlink="http://www.w3.org/1999/xlink">
    <!-- Generator: Sketch 47.1 (45422) - http://www.bohemiancoding.com/sketch -->
    <title>Envelope</title>
    <desc>Created with Sketch.</desc>
    <defs></defs>
    <g id="Index" stroke="none" stroke-width="1" fill="none" fill-rule="evenodd">
        <g transform="translate(-1122.000000, -5836.000000)" id="#5" fill="#0690AF">
            <g transform="translate(0.000000, 5153.000000)">
                <g id="Map" transform="translate(0.000000, 434.000000)">
                    <g id="Contact-Card" transform="translate(1072.000000, 0.000000)">
                        <g id="E-mail" transform="translate(50.000000, 212.000000)">
                            <path d="M1.43969178,40.6989382 C1.09376712,40.4603274 0.767260274,40.1321722 0.460376712,39.7145771 C0.153493151,39.2969821 0,38.9090957 0,38.5511272 C0,38.1080077 0.115787671,37.738637 0.347363014,37.4431194 C0.578938356,37.1477065 0.909554795,37 1.33921233,37 L13.6606849,37 C14.0232534,37 14.337226,37.1334798 14.6022945,37.400544 C14.867363,37.6676081 15,37.98865 15,38.3636696 C15,38.8125425 14.8633562,39.2415398 14.5897603,39.6504524 C14.3162671,40.0595742 13.9759932,40.4090695 13.5686301,40.698729 C11.4704795,42.1817564 10.1645548,43.1050264 9.65126712,43.4686438 C9.59547945,43.5084994 9.47681507,43.5950102 9.29547945,43.7285946 C9.11414384,43.862179 8.9635274,43.970239 8.8435274,44.0525655 C8.7235274,44.134892 8.5784589,44.2271562 8.40832192,44.3294628 C8.23818493,44.4315602 8.07760274,44.5084471 7.9269863,44.5593912 C7.77626712,44.6106491 7.63674658,44.6360688 7.50842466,44.6360688 L7.5,44.6360688 L7.49157534,44.6360688 C7.36325342,44.6360688 7.22373288,44.6106491 7.0730137,44.5593912 C6.92239726,44.5084471 6.76191781,44.4316648 6.59167808,44.3294628 C6.42143836,44.2272608 6.27636986,44.134892 6.15636986,44.0525655 C6.0364726,43.970239 5.88575342,43.862179 5.70441781,43.7285946 C5.52308219,43.5951148 5.40452055,43.5084994 5.34873288,43.4686438 C4.84089041,43.105131 4.10989726,42.5866939 3.15565068,41.9134369 C2.20140411,41.2401799 1.62945205,40.8352424 1.43969178,40.6989382 Z M14.1628767,41.610806 C14.4810616,41.3892463 14.76,41.141953 15,40.8693446 L15,47.6362257 C15,48.01135 14.8690068,48.3321826 14.6066096,48.5993514 C14.3443151,48.8665202 14.0290068,49 13.6607877,49 L1.33931507,49 C0.970993151,49 0.655684932,48.8665202 0.393390411,48.5993514 C0.13109589,48.3322873 0,48.01135 0,47.6362257 L0,40.8693446 C0.245547945,41.1477065 0.527363014,41.3949997 0.845445205,41.610806 C2.8655137,43.0084732 4.25219178,43.98865 5.00558219,44.5511272 C5.32366438,44.789738 5.58174658,44.9759402 5.77982877,45.1093153 C5.97791096,45.2428997 6.24164384,45.3792039 6.57082192,45.5184372 C6.9,45.6576704 7.2069863,45.7272347 7.49157534,45.7272347 L7.5,45.7272347 L7.5085274,45.7272347 C7.79311644,45.7272347 8.1,45.6576704 8.42917808,45.5184372 C8.7584589,45.3792039 9.02208904,45.2428997 9.22017123,45.1093153 C9.41835616,44.9759402 9.67643836,44.789738 9.99452055,44.5511272 C10.9430137,43.8522412 12.3326712,42.8720644 14.1628767,41.610806 Z" id="Envelope"></path>
                        </g>
                    </g>
                </g>
            </g>
        </g>
    </g>
</svg>