<?xml version="1.0" encoding="UTF-8"?>
<svg width="76px" height="77px" viewBox="0 0 76 77" version="1.1" xmlns="http://www.w3.org/2000/svg" xmlns:xlink="http://www.w3.org/1999/xlink">
    <!-- Generator: Sketch 47.1 (45422) - http://www.bohemiancoding.com/sketch -->
    <title>Instagram</title>
    <desc>Created with Sketch.</desc>
    <defs>
        <filter x="-26.3%" y="-100.0%" width="144.9%" height="370.0%" filterUnits="objectBoundingBox" id="filter-1">
            <feOffset dx="0" dy="6" in="SourceAlpha" result="shadowOffsetOuter1"></feOffset>
            <feGaussianBlur stdDeviation="9" in="shadowOffsetOuter1" result="shadowBlurOuter1"></feGaussianBlur>
            <feColorMatrix values="0 0 0 0 0   0 0 0 0 0   0 0 0 0 0  0 0 0 0.06 0" type="matrix" in="shadowBlurOuter1" result="shadowMatrixOuter1"></feColorMatrix>
            <feMerge>
                <feMergeNode in="shadowMatrixOuter1"></feMergeNode>
                <feMergeNode in="SourceGraphic"></feMergeNode>
            </feMerge>
        </filter>
        <linearGradient x1="50.3341019%" y1="0%" x2="50%" y2="100%" id="linearGradient-2">
            <stop stop-color="#7024C4" offset="0%"></stop>
            <stop stop-color="#C21975" offset="41.5460902%"></stop>
            <stop stop-color="#C74C4D" offset="70.220551%"></stop>
            <stop stop-color="#E09B3D" offset="100%"></stop>
        </linearGradient>
        <circle id="path-3" cx="20" cy="20" r="20"></circle>
        <filter x="-35.0%" y="-25.0%" width="170.0%" height="170.0%" filterUnits="objectBoundingBox" id="filter-4">
            <feOffset dx="0" dy="4" in="SourceAlpha" result="shadowOffsetOuter1"></feOffset>
            <feGaussianBlur stdDeviation="4" in="shadowOffsetOuter1" result="shadowBlurOuter1"></feGaussianBlur>
            <feColorMatrix values="0 0 0 0 0   0 0 0 0 0   0 0 0 0 0  0 0 0 0.06 0" type="matrix" in="shadowBlurOuter1"></feColorMatrix>
        </filter>
    </defs>
    <g id="Design" stroke="none" stroke-width="1" fill="none" fill-rule="evenodd">
        <g id="Index-(Desktop)" transform="translate(-1457.000000, -6801.000000)">
            <g id="#7" transform="translate(389.000000, 6118.000000)">
                <g id="Footer" transform="translate(0.000000, 690.000000)">
                    <g id="Social" filter="url(#filter-1)" transform="translate(921.000000, 5.000000)">
                        <g id="Instagram" transform="translate(165.000000, 0.000000)">
                            <g id="Oval">
                                <use fill="black" fill-opacity="1" filter="url(#filter-4)" xlink:href="#path-3"></use>
                                <use fill="url(#linearGradient-2)" fill-rule="evenodd" xlink:href="#path-3"></use>
                            </g>
                            <path d="M23.6377029,11 L16.3622971,11 C13.405514,11 11,13.405514 11,16.3622971 L11,23.6377029 C11,26.594486 13.405514,29 16.3622971,29 L23.6377029,29 C26.594486,29 29,26.594486 29,23.6377029 L29,16.3622971 C28.9999673,13.405514 26.5944533,11 23.6377029,11 Z M27.1892007,23.6377029 C27.1892007,25.5991246 25.5991246,27.1892007 23.6377029,27.1892007 L16.3622971,27.1892007 C14.4008754,27.1892007 12.8107993,25.5991246 12.8107993,23.6377029 L12.8107993,16.3622971 C12.8107993,14.4008428 14.4008754,12.8107993 16.3622971,12.8107993 L23.6377029,12.8107993 C25.5991246,12.8107993 27.1892007,14.4008428 27.1892007,16.3622971 L27.1892007,23.6377029 Z M20,15.3445595 C17.432986,15.3445595 15.3445595,17.432986 15.3445595,19.9999673 C15.3445595,22.5669487 17.432986,24.6554078 20,24.6554078 C22.567014,24.6554078 24.6554405,22.5669813 24.6554405,19.9999673 C24.6554405,17.4329533 22.567014,15.3445595 20,15.3445595 Z M20,22.8446412 C18.4289354,22.8446412 17.1553588,21.5710646 17.1553588,20 C17.1553588,18.4289354 18.4289681,17.1553588 20,17.1553588 C21.5710646,17.1553588 22.8446412,18.4289354 22.8446412,20 C22.8446412,21.5710319 21.5710319,22.8446412 20,22.8446412 Z M24.6644563,16.4950511 C25.2805515,16.4950511 25.7799954,15.9956072 25.7799954,15.379512 C25.7799954,14.7634167 25.2805515,14.2639728 24.6644563,14.2639728 C24.048361,14.2639728 23.5489171,14.7634167 23.5489171,15.379512 C23.5489171,15.9956072 24.048361,16.4950511 24.6644563,16.4950511 Z" fill="#FFFFFF" fill-rule="nonzero"></path>
                        </g>
                    </g>
                </g>
            </g>
        </g>
    </g>
</svg>