<svg xmlns="http://www.w3.org/2000/svg" viewBox="0 0 141 50">
  <defs>
    <linearGradient id="headerlogo" x1="13.08%" x2="96.746%" y1="100%" y2="-26.999%">
      <stop offset="0%" stop-color="#3F58B5"/>
      <stop offset="100%" stop-color="#2DB0C2"/>
    </linearGradient>
  </defs>
  <g fill="none" fill-rule="evenodd">
    <path fill="url(#headerlogo)" d="M.182 48.889l9.275-21.936h5.813l9.26 21.936h-6.467L16.469 45H8.075l-1.548 3.889H.182zm9.67-8.583h4.887l-2.429-6.198-2.459 6.198zm14.647-2.309c0-1.57.296-3.05.888-4.443a10.963 10.963 0 0 1 2.436-3.6c1.032-1.008 2.274-1.806 3.727-2.393 1.452-.588 3.008-.881 4.667-.881 1.842 0 3.471.268 4.888.805a13.22 13.22 0 0 1 3.946 2.37L41.5 34.108c-.81-.689-1.629-1.203-2.459-1.542-.83-.34-1.76-.509-2.793-.509-1.568 0-2.889.583-3.961 1.747-1.073 1.165-1.61 2.593-1.61 4.284 0 1.752.555 3.198 1.663 4.337 1.108 1.14 2.522 1.71 4.242 1.71 1.407 0 2.57-.305 3.492-.912v-2.644h-4.296v-4.42h10.018v9.798c-2.732 2.248-5.884 3.372-9.456 3.372-2.237 0-4.256-.478-6.057-1.435a10.641 10.641 0 0 1-4.242-4.033c-1.028-1.732-1.541-3.687-1.541-5.864zm24.635 10.892V27.105h17.502v5.135H55.1v3.296h10.443v4.77H55.1v3.448h11.688v5.135H49.134zm20.735 0V27.105H75.5l8.94 11.515V27.105h5.981v21.784H85.14l-9.305-11.94v11.94H69.87zm23.649-10.892c0-1.57.29-3.05.873-4.443.582-1.393 1.376-2.593 2.383-3.6 1.007-1.008 2.224-1.806 3.65-2.393 1.427-.588 2.95-.881 4.57-.881 3.875 0 6.92 1.534 9.137 4.603l-4.417 3.418c-1.346-1.682-2.945-2.522-4.797-2.522-1.507 0-2.75.56-3.726 1.678-.977 1.12-1.465 2.5-1.465 4.14 0 1.65.488 3.033 1.465 4.147.976 1.114 2.219 1.671 3.726 1.671 1.063 0 1.966-.22 2.71-.66.744-.441 1.48-1.102 2.208-1.983l4.539 3.236c-.739 1.012-1.52 1.863-2.345 2.552-.825.688-1.862 1.255-3.112 1.701-1.25.446-2.644.668-4.182.668-2.054 0-3.936-.483-5.646-1.45s-3.067-2.32-4.068-4.056c-1.002-1.737-1.503-3.679-1.503-5.826zm20.825-10.892h6.877l4.462 7.945 4.508-7.945h6.755l-8.273 13.535v8.249h-6.056V40.73l-8.273-13.626zm19.824 21.784v-6.061h6.163v6.06h-6.163z"/>
    <path fill="#000" d="M5.33.667h7.993v2.666H5.329V.667zM2.664 3.333h2.664V14H2.665V3.333zm10.658 0h2.664V6h-2.664V3.333zm0 8h2.664V14h-2.664v-2.667zM5.329 14h7.994v2.667H5.329V14zM18.652.667h2.665v8h-2.665v-8zm10.658 0h2.665v8H29.31v-8zm-7.993 8h2.664v2.666h-2.664V8.667zm5.329 0h2.664v2.666h-2.664V8.667zm-2.665 2.666h2.665v5.334H23.98v-5.334zM34.64.667h10.659v2.666h-7.994V6h7.994v2.667h-7.994V14h7.994v2.667h-10.66v-16zm10.659 2.666h2.664V6h-2.664V3.333zm0 5.334h2.664V14h-2.664V8.667zm5.329-8H63.95v2.666H53.29V6h7.994v2.667H53.29V14h10.66v2.667H50.627v-16zm15.987 0h10.658v2.666H69.28v8h7.993V14H69.28v2.667h-2.665v-16zm10.658 2.666h2.665v8h-2.665v-8zm0 10.667h2.665v2.667h-2.665V14z"/>
  </g>
</svg>
