<svg xmlns="http://www.w3.org/2000/svg" viewBox="0 0 14 14">
  <path fill-rule="evenodd" d="M10.446 3.187l-2.59-2.06.411-.514a1.65 1.65 0 0 1 2.31-.255l.025.021c.71.563.825 1.59.258 2.294l-.414.514zM7.929 7.511a.485.485 0 0 1 .106-.36l1.942-2.413-.475-.377-6.007 7.458-2.59-2.061 6.624-8.227 2.59 2.063-.002.001.475.378.277-.344a.505.505 0 0 1 .69-.093.487.487 0 0 1 .088.697L8.805 7.764a.496.496 0 0 1-.876-.253zM3.065 12.2c-.124.067-.235.113-.233.113L.34 13.438a.24.24 0 0 1-.336-.266l.56-2.66s.02-.12.06-.255l2.44 1.942zm10.58.477a.342.342 0 0 1 .294.539.313.313 0 0 1-.214.141h-.003l-5.076.642h-.003c-.01.002-.02.002-.03.002a.315.315 0 0 1-.226-.097.417.417 0 0 1-.041-.506c.038-.051.076-.105.115-.156a.229.229 0 0 0-.221-.36l-5.88.879a.329.329 0 0 1-.302-.102.361.361 0 0 1-.093-.218.334.334 0 0 1 .29-.365l1.608-.24.59-.09 4.933-.736a.37.37 0 0 1 .057-.004c.27 0 .464.312.318.546-.055.088-.11.177-.167.263a.23.23 0 0 0 .224.35l3.764-.484a.439.439 0 0 1 .063-.004z" opacity=".4"/>
</svg>
