<svg xmlns="http://www.w3.org/2000/svg" viewBox="0 0 16 16">
  <path fill="#3F58B5" fill-rule="evenodd" d="M15.102 11.795a26.888 26.888 0 0 0-.613-.34 54.784 54.784 0 0 1-.722-.398 24.246 24.246 0 0 1-.608-.353c-.03-.022-.125-.089-.284-.198a3.187 3.187 0 0 0-.404-.245.741.741 0 0 0-.323-.08c-.152 0-.341.109-.568.325-.228.216-.436.45-.625.704-.19.254-.39.489-.602.705-.213.216-.387.324-.523.324a.773.773 0 0 1-.256-.057 2.601 2.601 0 0 1-.233-.097 4.204 4.204 0 0 1-.273-.159 7.5 7.5 0 0 0-.216-.13c-1.037-.576-1.928-1.236-2.67-1.978S4.78 8.185 4.205 7.148a6.423 6.423 0 0 0-.131-.216 4.092 4.092 0 0 1-.16-.273 2.466 2.466 0 0 1-.096-.233.77.77 0 0 1-.056-.256c0-.136.107-.31.323-.523a6.85 6.85 0 0 1 .705-.602 5.53 5.53 0 0 0 .704-.625c.216-.227.324-.416.324-.568a.742.742 0 0 0-.08-.324 3.155 3.155 0 0 0-.244-.403 14.72 14.72 0 0 0-.198-.284 26.83 26.83 0 0 1-.353-.608 56.74 56.74 0 0 1-.397-.722c-.144-.265-.258-.47-.341-.613C3.94.368 3.739.08 3.602.034A.636.636 0 0 0 3.364 0a3.73 3.73 0 0 0-.801.114 4.47 4.47 0 0 0-.779.238c-.379.16-.78.621-1.204 1.386C.193 2.451 0 3.155 0 3.852a4.317 4.317 0 0 0 .182 1.25c.068.243.123.423.165.54.041.117.119.328.233.63.113.304.181.49.204.557.265.743.58 1.406.943 1.99.598.969 1.415 1.97 2.449 3.005 1.034 1.034 2.036 1.85 3.006 2.449.583.363 1.246.678 1.988.943.069.023.254.091.557.205l.63.233c.118.042.298.097.54.165.243.068.461.115.654.142.193.026.392.04.597.04.697 0 1.401-.194 2.113-.58.765-.424 1.227-.826 1.387-1.205.083-.189.162-.448.238-.778.076-.33.114-.596.114-.801a.635.635 0 0 0-.034-.24c-.046-.136-.333-.337-.864-.602z"/>
</svg>
