<?xml version="1.0" encoding="UTF-8"?>
<svg width="14px" height="14px" viewBox="0 0 14 14" version="1.1" xmlns="http://www.w3.org/2000/svg" xmlns:xlink="http://www.w3.org/1999/xlink">
    <!-- Generator: Sketch 47.1 (45422) - http://www.bohemiancoding.com/sketch -->
    <title>Phone</title>
    <desc>Created with Sketch.</desc>
    <defs></defs>
    <g id="Index" stroke="none" stroke-width="1" fill="none" fill-rule="evenodd">
        <g transform="translate(-1123.000000, -5756.000000)" id="#5" fill="#0690AF">
            <g transform="translate(0.000000, 5153.000000)">
                <g id="Map" transform="translate(0.000000, 434.000000)">
                    <g id="Contact-Card" transform="translate(1072.000000, 0.000000)">
                        <g id="Phone" transform="translate(50.000000, 134.000000)">
                            <path d="M14.2143831,45.3210174 C14.0886748,45.2480334 13.9095099,45.1486872 13.6777429,45.0227348 C13.4456097,44.8967824 13.2350788,44.7807158 13.0462723,44.674535 C12.8572216,44.5685983 12.6798875,44.4657128 12.5142699,44.3664887 C12.4877857,44.346595 12.4049158,44.2886228 12.2656603,44.1924498 C12.1264048,44.0963989 12.0088737,44.0251235 11.9125787,43.9786236 C11.8165278,43.9322458 11.7220635,43.9090569 11.6291858,43.9090569 C11.4966429,43.9090569 11.3310253,44.0035212 11.1322109,44.1924498 C10.9333965,44.3813784 10.7510584,44.5867833 10.5854408,44.8090307 C10.4197011,45.031156 10.2440756,45.236561 10.0585644,45.4254895 C9.87293104,45.6145402 9.72037243,45.7088824 9.60113262,45.7088824 C9.54145169,45.7088824 9.46675899,45.6922841 9.37729862,45.6593314 C9.28796029,45.6262567 9.21998017,45.5978198 9.17335826,45.5748749 C9.12710249,45.551564 9.04764996,45.5053082 8.93487864,45.4354974 C8.82198526,45.3659307 8.75913111,45.32773 8.74595005,45.3210174 C7.83779913,44.8172078 7.05889587,44.2404142 6.40924027,43.5908807 C5.75970671,42.9412251 5.1829131,42.1623218 4.67910354,41.2541709 C4.67251301,41.2408678 4.63431233,41.1778916 4.5647456,41.0652423 C4.49505683,40.952471 4.44867901,40.8730185 4.4254901,40.8265186 C4.40230119,40.7801408 4.37410836,40.7121607 4.34103365,40.6227003 C4.30795894,40.5332399 4.29136056,40.4586693 4.29136056,40.3989883 C4.29136056,40.2797485 4.38582486,40.1271899 4.57475345,39.9415566 C4.76368203,39.7560453 4.969209,39.5802978 5.19121229,39.4146802 C5.41333764,39.2490625 5.61874255,39.0667245 5.80767114,38.8679101 C5.99659973,38.6689736 6.09106402,38.503356 6.09106402,38.3708131 C6.09106402,38.2780575 6.06787511,38.1834711 6.02149729,38.0874202 C5.97511948,37.9911252 5.90384409,37.8735941 5.80767114,37.7343386 C5.71149819,37.595083 5.65352592,37.5123353 5.63363227,37.485729 C5.5342861,37.3201114 5.43164467,37.1427773 5.32546387,36.9538487 C5.21928308,36.7649201 5.10333853,36.5543892 4.97738614,36.3223781 C4.85143375,36.090489 4.75208758,35.9114462 4.67910354,35.7854938 C4.4470924,35.3215936 4.27146692,35.0695667 4.15210506,35.0299015 C4.10572724,35.0100078 4.03603847,35 3.94328283,35 C3.76424004,35 3.53064229,35.0330747 3.24224549,35.0994682 C2.95384868,35.1657397 2.72684146,35.2353064 2.56110179,35.3082904 C2.22962243,35.4474239 1.87837148,35.8517653 1.50710483,36.5211925 C1.16903494,37.1442418 1,37.7608227 1,38.370691 C1,38.5494897 1.01159445,38.7235286 1.03478336,38.8926856 C1.05797227,39.0617205 1.09946822,39.2523578 1.15914915,39.4644753 C1.21883008,39.6765928 1.26691655,39.8341553 1.30328652,39.9367968 C1.3396565,40.0394382 1.40763662,40.2233629 1.50710483,40.4885707 C1.606451,40.7537786 1.66613193,40.916101 1.68602558,40.9757819 C1.91803672,41.6254375 2.19313041,42.2054044 2.51130665,42.7159265 C3.03476577,43.5643965 3.74910623,44.4411814 4.65396188,45.346037 C5.55881753,46.2508927 6.43548035,46.9652331 7.28407238,47.4889363 C7.79447248,47.8069905 8.3746834,48.0822063 9.02421696,48.3143395 C9.08389789,48.3341111 9.2463423,48.393792 9.51142815,48.4933823 C9.776514,48.5927284 9.96056071,48.6607085 10.0632021,48.6972006 C10.1658436,48.7336926 10.3234061,48.7817791 10.5354016,48.84146 C10.7477632,48.9011409 10.9382784,48.9426369 11.1073133,48.9659478 C11.2763482,48.9888926 11.4503871,49.0007312 11.6293079,49.0007312 C12.2390541,49.0007312 12.855635,48.8315742 13.4788064,48.4936263 C14.1481116,48.1223597 14.5524529,47.7709867 14.6917084,47.4393853 C14.7648145,47.2738897 14.8342592,47.0467604 14.9005307,46.7583636 C14.9669242,46.4700889 14.9999989,46.2364911 14.9999989,46.0574483 C15.0001209,45.9643266 14.9901131,45.8947598 14.9700974,45.8480159 C14.9304322,45.728654 14.6785274,45.5529065 14.2143831,45.3210174 Z"></path>
                        </g>
                    </g>
                </g>
            </g>
        </g>
    </g>
</svg>