<?xml version="1.0" encoding="UTF-8"?>
<svg width="10px" height="14px" viewBox="0 0 10 14" version="1.1" xmlns="http://www.w3.org/2000/svg" xmlns:xlink="http://www.w3.org/1999/xlink">
    <!-- Generator: Sketch 47.1 (45422) - http://www.bohemiancoding.com/sketch -->
    <title>Place</title>
    <desc>Created with Sketch.</desc>
    <defs></defs>
    <g id="Index" stroke="none" stroke-width="1" fill="none" fill-rule="evenodd">
        <g transform="translate(-477.000000, -5438.000000)" id="#5" fill="#0690AF">
            <g transform="translate(0.000000, 5153.000000)">
                <g id="Offices" transform="translate(390.000000, 134.000000)">
                    <g id="Moscow" transform="translate(0.000000, 81.000000)">
                        <g id="Address" transform="translate(87.000000, 65.000000)">
                            <path d="M8.19373862,6.36718794 C7.25626915,5.45565473 6.125023,5 4.80000018,5 C3.47497736,5 2.34373121,5.4557666 1.40626174,6.36718794 C0.46879227,7.27860927 0,8.37842308 0,9.66662938 C0,10.3290236 0.10310208,10.8728335 0.30930624,11.2981709 L3.73123666,18.3529322 C3.82501812,18.5534069 3.97035063,18.7113702 4.16723418,18.8267102 C4.36411773,18.9421622 4.57503973,19 4.80011525,19 C5.0250757,19 5.23611277,18.9421622 5.43299632,18.8267102 C5.62987987,18.7113702 5.77820418,18.5534069 5.87819939,18.3529322 L9.29057905,11.2981709 C9.49689828,10.8728335 9.60000036,10.3290236 9.60000036,9.66662938 C9.60011543,8.37842308 9.13132316,7.27872114 8.19373862,6.36718794 L8.19373862,6.36718794 Z M6.49681187,11.316406 C6.02813467,11.7720608 5.46256913,11.9999441 4.80000018,11.9999441 C4.13743123,11.9999441 3.57186569,11.7720608 3.10307343,11.316406 C2.63428116,10.8606394 2.39988502,10.3107885 2.39988502,9.66662938 C2.39988502,9.02258217 2.63428116,8.47261932 3.10307343,8.01696459 C3.57186569,7.56119799 4.1375463,7.33331469 4.80000018,7.33331469 C5.46256913,7.33331469 6.02813467,7.56119799 6.49681187,8.01696459 C6.96560414,8.47261932 7.20000027,9.02258217 7.20000027,9.66662938 C7.20000027,10.3106766 6.96560414,10.8605276 6.49681187,11.316406 L6.49681187,11.316406 Z" id="Place"></path>
                        </g>
                    </g>
                </g>
            </g>
        </g>
    </g>
</svg>