<svg xmlns="http://www.w3.org/2000/svg" viewBox="0 0 20 17">
  <path fill="#090509" d="M6.81.873l.286.253c1.029.876 2.155 2.555 1.855 5.747-.176 2.496-1.485 6.232-6.725 9.872-.252.17-.546.255-.84.255-.407 0-.812-.16-1.083-.474-.464-.533-.354-1.302.243-1.716 4.27-2.96 5.435-5.862 5.642-7.852a4.494 4.494 0 0 1-2.022.486C1.866 7.444 0 5.778 0 3.722S1.864 0 4.166 0c.52 0 .998.114 1.453.275l-.014-.03.48.198.043.014.023.015.659.401zm11.281.253c1.035.876 2.16 2.555 1.86 5.747-.178 2.496-1.484 6.232-6.724 9.872-.251.17-.545.255-.84.255-.406 0-.81-.16-1.082-.474-.463-.533-.356-1.302.243-1.716 4.268-2.96 5.432-5.862 5.636-7.852a4.49 4.49 0 0 1-2.02.486C12.86 7.444 11 5.778 11 3.722S12.86 0 15.157 0c.52 0 1 .114 1.456.275l-.014-.03.48.198.046.014.022.015.656.401.288.253z"/>
</svg>
