<svg xmlns="http://www.w3.org/2000/svg" viewBox="0 0 20 17">
  <path fill="#090509" d="M13.437 16.127l-.275-.253c-.992-.876-2.077-2.555-1.788-5.747.169-2.496 1.43-6.232 6.481-9.872a1.41 1.41 0 0 1 .81-.255c.392 0 .782.16 1.043.474.447.533.341 1.302-.234 1.716-4.115 2.96-5.238 5.862-5.437 7.852a4.205 4.205 0 0 1 1.948-.486c2.216 0 4.015 1.666 4.015 3.722S18.204 17 15.985 17c-.501 0-.962-.114-1.4-.275l.013.03-.463-.198-.041-.014-.022-.015-.635-.401zm-11.596-.253c-.998-.876-2.082-2.555-1.794-5.747C.22 7.631 1.478 3.895 6.531.255A1.41 1.41 0 0 1 7.341 0c.392 0 .782.16 1.044.474.447.533.343 1.302-.235 1.716-4.115 2.96-5.238 5.862-5.434 7.852a4.205 4.205 0 0 1 1.948-.486c2.222 0 4.015 1.666 4.015 3.722S6.886 17 4.67 17c-.5 0-.964-.114-1.403-.275l.014.03-.463-.198-.044-.014-.022-.015-.632-.401-.278-.253z"/>
</svg>
