<svg xmlns="http://www.w3.org/2000/svg" viewBox="0 0 470 470">
  <path d="M462.5 22.5H7.5A7.5 7.5 0 0 0 0 30v410a7.5 7.5 0 0 0 7.5 7.5h455a7.5 7.5 0 0 0 7.5-7.5v-80c0-4.143-3.358-7.5-7.5-7.5s-7.5 3.357-7.5 7.5v72.5H15v-335h440V330c0 4.143 3.358 7.5 7.5 7.5s7.5-3.357 7.5-7.5V30a7.5 7.5 0 0 0-7.5-7.5zM15 37.5h277.5v45H15v-45zm292.5 45v-45H455v45H307.5z"/>
  <path d="M381.5 52c-4.411 0-8 3.589-8 8s3.589 8 8 8 8-3.589 8-8-3.589-8-8-8zm-41 0c-4.411 0-8 3.589-8 8s3.589 8 8 8 8-3.589 8-8-3.589-8-8-8zm82 0c-4.411 0-8 3.589-8 8s3.589 8 8 8 8-3.589 8-8-3.589-8-8-8zM317.875 202.985a7.5 7.5 0 1 0 8.984 12.012c27.075-20.25 42.603-51.23 42.603-84.997a7.5 7.5 0 0 0-7.5-7.5H166.907c-.063.001-.124-.002-.187 0h-58.681a7.5 7.5 0 0 0-7.5 7.5c0 45.874 29.817 86.681 73.065 100.833 5.843 25.889 27.663 45.446 53.897 48.617v38.873h-54.423a7.5 7.5 0 0 0-7.5 7.5V400a7.5 7.5 0 0 0 7.5 7.5h123.846a7.5 7.5 0 0 0 7.5-7.5v-74.176a7.5 7.5 0 0 0-7.5-7.5H242.5v-38.873c27.964-3.38 50.924-25.376 54.85-53.814l12.176-88.137h44.636c-2.094 26.046-15.057 49.606-36.287 65.485zM289.423 392.5H180.577v-59.176h108.846V392.5zm-173.574-255h44.626l10.546 76.345c-30.898-13.14-52.376-42.643-55.172-76.345zm166.642 86.084c-3.253 23.564-23.67 41.334-47.491 41.334-23.821 0-44.238-17.77-47.491-41.334L175.617 137.5h15.142l3.304 23.922a7.502 7.502 0 0 0 8.456 6.404 7.5 7.5 0 0 0 6.403-8.456l-3.021-21.869h88.482l-11.892 86.083z"/>
  <path d="M204.572 182.68a7.5 7.5 0 0 0-6.403 8.456l4.199 30.396c2.235 16.183 16.264 28.387 32.633 28.387 4.142 0 7.5-3.357 7.5-7.5s-3.358-7.5-7.5-7.5c-8.917 0-16.558-6.638-17.774-15.439l-4.199-30.396a7.498 7.498 0 0 0-8.456-6.404zm-2.32 179.82a7.5 7.5 0 0 0 7.5 7.5h50.495c4.142 0 7.5-3.357 7.5-7.5s-3.358-7.5-7.5-7.5h-50.495a7.5 7.5 0 0 0-7.5 7.5z"/>
</svg>
