<svg xmlns="http://www.w3.org/2000/svg" viewBox="0 0 15 15">
  <path fill="#FFF" d="M1.294 6.27a1.32 1.32 0 0 1-1.079-.542 1.14 1.14 0 0 1-.113-1.139C1.321 1.895 4.177 0 7.5 0c2.191 0 4.179.824 5.63 2.158l.543-.764a.58.58 0 0 1 .63-.21.528.528 0 0 1 .396.503l-.02 4.062a.517.517 0 0 1-.257.437.595.595 0 0 1-.533.037L9.942 4.565a.517.517 0 0 1-.325-.547.541.541 0 0 1 .469-.447l.718-.104A5.625 5.625 0 0 0 7.5 2.407c-2.26 0-4.2 1.293-5.024 3.128-.2.445-.666.734-1.182.734zm13.49 3.002c.24.338.283.766.114 1.139C13.679 13.105 10.823 15 7.5 15c-2.191 0-4.179-.824-5.63-2.158l-.543.764a.58.58 0 0 1-.63.21.528.528 0 0 1-.396-.503l.02-4.062a.517.517 0 0 1 .257-.437c.16-.096.36-.11.533-.037l3.947 1.658a.517.517 0 0 1 .325.547.542.542 0 0 1-.469.447l-.718.104a5.625 5.625 0 0 0 3.304 1.06c2.26 0 4.2-1.293 5.024-3.128.2-.445.666-.734 1.182-.734.434 0 .84.203 1.079.541z"/>
</svg>
