<svg xmlns="http://www.w3.org/2000/svg" viewBox="0 0 16 16">
  <path fill="#FFF" d="M12.164 10.584c.636.633 1.272 1.266 1.905 1.901.53.533.526 1.186-.007 1.725-.36.363-.742.71-1.082 1.089-.496.556-1.115.736-1.828.696-1.035-.057-1.988-.4-2.906-.846a15.844 15.844 0 0 1-5.248-4.105C1.916 9.759 1.024 8.357.438 6.779c-.286-.763-.49-1.545-.426-2.374.04-.51.23-.946.606-1.302.406-.386.789-.789 1.188-1.182.52-.513 1.172-.513 1.695-.003.323.316.64.639.959.959.31.313.62.619.929.932.546.55.546 1.189.003 1.735-.39.392-.776.785-1.172 1.168-.103.103-.113.187-.06.313.263.626.64 1.182 1.062 1.701.853 1.046 1.815 1.975 2.964 2.697.246.153.519.267.775.407.13.073.22.05.327-.06.39-.4.785-.793 1.182-1.186.519-.516 1.172-.516 1.694 0zm-.636-2.653a4.237 4.237 0 0 0-1.185-2.29A4.237 4.237 0 0 0 7.92 4.43l.173-1.235a5.461 5.461 0 0 1 3.13 1.562 5.491 5.491 0 0 1 1.535 2.963l-1.229.21zm1.921-5.34A9.125 9.125 0 0 1 16 7.507l-1.228.21a7.849 7.849 0 0 0-2.2-4.245 7.855 7.855 0 0 0-4.489-2.238L8.255 0a9.059 9.059 0 0 1 5.194 2.59z"/>
</svg>
