<?xml version="1.0" encoding="UTF-8"?>
<svg width="90px" height="94px" viewBox="0 0 90 94" version="1.1" xmlns="http://www.w3.org/2000/svg" xmlns:xlink="http://www.w3.org/1999/xlink">
    <!-- Generator: Sketch 47.1 (45422) - http://www.bohemiancoding.com/sketch -->
    <title>VK</title>
    <desc>Created with Sketch.</desc>
    <defs>
        <filter x="-26.3%" y="-100.0%" width="144.9%" height="370.0%" filterUnits="objectBoundingBox" id="filter-1">
            <feOffset dx="0" dy="6" in="SourceAlpha" result="shadowOffsetOuter1"></feOffset>
            <feGaussianBlur stdDeviation="9" in="shadowOffsetOuter1" result="shadowBlurOuter1"></feGaussianBlur>
            <feColorMatrix values="0 0 0 0 0   0 0 0 0 0   0 0 0 0 0  0 0 0 0.06 0" type="matrix" in="shadowBlurOuter1" result="shadowMatrixOuter1"></feColorMatrix>
            <feMerge>
                <feMergeNode in="shadowMatrixOuter1"></feMergeNode>
                <feMergeNode in="SourceGraphic"></feMergeNode>
            </feMerge>
        </filter>
        <circle id="path-2" cx="20" cy="20" r="20"></circle>
        <filter x="-100.0%" y="-80.0%" width="300.0%" height="300.0%" filterUnits="objectBoundingBox" id="filter-3">
            <feOffset dx="0" dy="8" in="SourceAlpha" result="shadowOffsetOuter1"></feOffset>
            <feGaussianBlur stdDeviation="12" in="shadowOffsetOuter1" result="shadowBlurOuter1"></feGaussianBlur>
            <feColorMatrix values="0 0 0 0 0   0 0 0 0 0   0 0 0 0 0  0 0 0 0.06 0" type="matrix" in="shadowBlurOuter1"></feColorMatrix>
        </filter>
    </defs>
    <g id="Design" stroke="none" stroke-width="1" fill="none" fill-rule="evenodd">
        <g id="Index-(Desktop)" transform="translate(-1285.000000, -6798.000000)">
            <g id="#7" transform="translate(389.000000, 6118.000000)">
                <g id="Footer" transform="translate(0.000000, 690.000000)">
                    <g id="Social" filter="url(#filter-1)" transform="translate(921.000000, 5.000000)">
                        <g id="VK">
                            <g id="Oval">
                                <use fill="black" fill-opacity="1" filter="url(#filter-3)" xlink:href="#path-2"></use>
                                <use fill="#4C77A6" fill-rule="evenodd" xlink:href="#path-2"></use>
                            </g>
                            <path d="M26.9341348,22.6301467 C27.6639023,23.3168864 28.4341481,23.9630083 29.0886692,24.7190002 C29.3778005,25.0549502 29.6515356,25.4016294 29.8609389,25.7915041 C30.1576599,26.345731 29.8889124,26.9556244 29.3733189,26.9887177 L26.1682982,26.9873243 C25.3416718,27.0534414 24.6822355,26.7326796 24.1277539,26.1879278 C23.6840096,25.7522798 23.2730817,25.2886242 22.8463962,24.8382757 C22.6714717,24.6542069 22.4883793,24.4810067 22.2696515,24.3441046 C21.8321235,24.0703702 21.4523495,24.1541835 21.2023232,24.5940118 C20.9476708,25.0413645 20.8899168,25.53672 20.8649069,26.0352803 C20.8305726,26.7627074 20.602448,26.9539523 19.8443457,26.9872547 C18.2241983,27.0608961 16.6865979,26.8246443 15.2582169,26.0368827 C13.9989054,25.3424097 13.0223644,24.3620099 12.1723906,23.2520931 C10.5174752,21.0908522 9.2501403,18.7160023 8.11110745,16.2746173 C7.85472025,15.7245706 8.04222192,15.4293081 8.67187765,15.4188576 C9.7174488,15.3992802 10.7628754,15.4006736 11.8096753,15.4174642 C12.2346261,15.4234558 12.5159509,15.6583839 12.6800329,16.0453325 C13.2457183,17.3859971 13.9378987,18.6615201 14.8067383,19.8438243 C15.0381157,20.1585945 15.2740468,20.4733647 15.6100174,20.6949161 C15.9816958,20.9402251 16.264683,20.8589199 16.4395352,20.4598487 C16.5504893,20.2068063 16.5990634,19.9342563 16.6240733,19.663239 C16.7069094,18.730842 16.7178241,17.8000475 16.5725356,16.870925 C16.4833386,16.2910595 16.1444767,15.9156761 15.5441678,15.8059455 C15.2378331,15.7500003 15.2834436,15.6401303 15.431768,15.4715979 C15.689384,15.1809336 15.931676,15 16.4146699,15 L20.0368348,15 C20.6070741,15.1084766 20.7337136,15.355388 20.8117791,15.9084304 L20.8148872,19.7864857 C20.8086709,20.0005824 20.9258414,20.6359054 21.3259268,20.7776147 C21.6461398,20.8784972 21.8572056,20.6315859 22.0493334,20.4358821 C22.9165828,19.5487011 23.5355407,18.5002335 24.0885043,17.4145619 C24.3339046,16.9371814 24.5448981,16.4414079 24.7493863,15.9460524 C24.9008911,15.5784721 25.1386293,15.3976081 25.5682062,15.4056202 L29.0543348,15.408616 C29.1576993,15.408616 29.2622925,15.4100791 29.3624042,15.426591 C29.9498468,15.5230843 30.1108207,15.7666515 29.9293908,16.3195546 C29.6435122,17.1870189 29.0872958,17.9099174 28.5434398,18.6361602 C27.962069,19.4115204 27.3402921,20.1603363 26.7637642,20.9402947 C26.2340756,21.6525337 26.2761442,22.0115446 26.9341348,22.6301467 L26.9341348,22.6301467 Z" fill="#FFFFFF" fill-rule="nonzero"></path>
                        </g>
                    </g>
                </g>
            </g>
        </g>
    </g>
</svg>